<?xml version="1.0" standalone="no"?>
<!DOCTYPE svg PUBLIC "-//W3C//DTD SVG 20010904//EN"
 "http://www.w3.org/TR/2001/REC-SVG-20010904/DTD/svg10.dtd">
<svg version="1.0" xmlns="http://www.w3.org/2000/svg"
 width="456.000000pt" height="396.000000pt" viewBox="0 0 456.000000 396.000000"
 preserveAspectRatio="xMidYMid meet">

<g transform="translate(0.000000,396.000000) scale(0.100000,-0.100000)"
fill="#000000" stroke="none">
<path d="M213 3911 c-56 -61 -103 -206 -103 -321 0 -128 50 -267 130 -361 47
-56 279 -289 288 -289 15 0 792 786 792 801 0 9 -39 55 -86 103 l-86 86 -459
0 c-439 0 -459 -1 -476 -19z"/>
<path d="M3359 3845 c-46 -47 -85 -91 -87 -99 -2 -11 779 -806 793 -806 7 0
265 258 265 265 0 3 11 16 24 28 29 27 89 144 110 216 21 70 21 213 0 282 -9
30 -28 79 -43 109 -48 99 6 90 -516 90 l-461 0 -85 -85z"/>
<path d="M2260 3520 c-124 -61 -269 -132 -405 -196 l-69 -33 -135 135 -135
135 -404 -404 -404 -404 92 -93 92 -92 -7 -81 c-3 -45 -8 -104 -11 -132 -2
-27 -13 -151 -24 -275 -10 -124 -27 -311 -36 -416 -19 -214 -16 -237 36 -268
17 -9 30 -20 30 -24 0 -4 -70 -76 -154 -160 -144 -143 -186 -197 -186 -235 0
-9 -5 -19 -10 -22 -5 -3 -10 -15 -10 -26 0 -10 -4 -27 -9 -37 -23 -46 -41 -95
-41 -112 0 -11 -4 -20 -10 -20 -5 0 -10 -11 -10 -24 0 -14 -4 -28 -10 -31 -5
-3 -10 -13 -10 -22 0 -19 552 -573 571 -573 12 0 120 37 174 60 11 5 43 16 70
25 28 9 58 21 67 26 10 5 25 9 33 9 8 0 146 130 305 290 160 159 293 290 296
290 3 0 47 -21 97 -47 125 -65 133 -64 342 37 94 45 173 84 177 87 4 2 156
-145 338 -327 182 -181 336 -330 343 -330 10 0 121 -39 172 -60 11 -5 43 -16
70 -25 28 -9 58 -21 67 -26 10 -5 26 -9 35 -9 27 0 573 552 573 578 0 12 -4
22 -10 22 -5 0 -10 8 -10 18 0 19 -32 107 -43 118 -4 4 -7 16 -7 26 0 10 -4
26 -9 36 -5 9 -19 45 -32 80 -21 59 -34 76 -207 248 -179 178 -184 185 -174
211 6 16 14 69 17 118 4 50 8 106 10 125 2 19 7 73 10 120 3 47 8 101 10 120
4 33 11 119 20 240 9 120 18 221 29 346 l12 131 52 50 c29 28 52 53 52 56 0 5
-742 749 -787 790 -19 17 -23 15 -119 -83 -54 -55 -102 -100 -106 -100 -4 0
-98 48 -208 106 -114 61 -216 108 -237 111 -32 3 -60 -7 -163 -57z m182 -92
c28 -37 507 -596 596 -697 32 -35 58 -69 60 -76 3 -11 -61 -13 -330 -10 -183
2 -530 4 -770 4 l-437 1 87 84 c48 46 119 114 157 151 207 199 522 505 554
537 20 20 41 37 47 37 7 1 23 -14 36 -31z m699 -334 c255 -135 467 -249 472
-253 4 -4 -23 -21 -60 -38 -38 -17 -116 -54 -175 -82 -58 -28 -113 -51 -121
-51 -18 0 -61 45 -223 235 -154 180 -302 353 -327 380 -19 20 -40 55 -34 55 2
0 212 -111 468 -246z m-1161 105 c-74 -72 -189 -183 -255 -247 -266 -258 -282
-272 -308 -272 -32 0 -317 151 -317 168 0 14 36 32 624 310 55 26 156 75 225
109 69 34 135 62 146 62 14 0 -21 -40 -115 -130z m-869 -483 c30 -18 96 -54
147 -81 67 -34 92 -52 92 -66 0 -11 -22 -61 -49 -112 -26 -50 -115 -222 -196
-382 -81 -159 -151 -294 -156 -299 -5 -5 -11 -7 -15 -4 -3 4 4 111 15 240 24
271 26 295 46 529 8 97 17 183 21 192 9 25 33 21 95 -17z m2564 -3 c-3 -21
-14 -150 -25 -288 -11 -137 -22 -270 -25 -295 -2 -25 -10 -118 -16 -207 -13
-178 -24 -202 -52 -110 -9 28 -25 77 -36 107 -87 243 -204 591 -208 615 -6 38
10 53 97 91 36 16 108 50 160 76 52 26 98 47 103 48 4 0 5 -17 2 -37z m-572
-172 c13 -5 -77 -131 -426 -598 -243 -326 -445 -593 -449 -593 -3 0 -35 50
-70 111 -34 62 -70 123 -78 138 -8 14 -44 77 -80 139 -36 62 -72 126 -81 141
-16 26 -86 147 -300 519 l-88 153 777 -2 c428 -1 786 -5 795 -8z m-1640 -98
c8 -16 65 -116 127 -223 62 -107 130 -224 150 -260 20 -36 85 -148 145 -250
109 -188 130 -224 164 -282 10 -18 28 -50 41 -71 12 -21 21 -39 19 -41 -4 -3
-111 11 -217 29 -39 6 -192 30 -427 65 -77 11 -151 23 -165 25 -14 3 -72 12
-130 20 -237 34 -263 43 -227 83 8 9 63 112 122 227 59 116 131 255 160 310
29 55 85 163 125 240 40 77 74 143 77 148 8 14 22 7 36 -20z m1800 -120 c25
-76 78 -230 117 -343 167 -482 166 -481 147 -495 -10 -7 -50 -16 -90 -20 -39
-5 -74 -9 -77 -10 -3 0 -31 -5 -64 -9 -32 -4 -68 -9 -80 -11 -11 -2 -59 -9
-106 -15 -47 -6 -96 -13 -110 -15 -14 -2 -63 -9 -110 -15 -47 -6 -96 -13 -110
-15 -119 -18 -342 -47 -370 -49 -19 0 -36 4 -37 9 -1 11 828 1125 838 1125 3
0 27 -62 52 -137z m-1973 -988 c107 -15 578 -87 650 -99 14 -2 62 -10 108 -16
88 -13 113 -28 107 -60 -2 -11 -7 -63 -11 -117 -4 -54 -8 -105 -10 -113 -1 -8
-3 -30 -3 -47 -1 -18 -5 -33 -10 -33 -8 0 -930 486 -940 495 -6 7 2 6 109 -10z
m1975 -5 c-4 -7 -26 -20 -49 -30 -22 -10 -117 -55 -211 -100 -93 -45 -208
-100 -255 -122 -47 -22 -139 -66 -205 -98 -244 -117 -294 -140 -301 -140 -3 0
-4 19 0 43 3 23 8 92 12 152 4 61 8 117 10 125 1 8 3 18 3 22 3 21 19 25 341
68 194 27 197 27 410 59 228 33 254 35 245 21z"/>
<path d="M2227 3060 c-35 -27 -44 -78 -22 -120 12 -22 33 -39 73 -57 31 -14
65 -33 75 -41 44 -39 -2 -100 -67 -88 -37 7 -58 26 -78 71 l-13 30 -3 -49 c-2
-27 1 -53 7 -59 13 -13 111 -22 145 -13 13 3 38 18 55 32 26 21 31 33 31 68 0
57 -21 83 -99 118 -84 37 -99 59 -65 92 35 36 107 9 119 -44 10 -47 25 -35 25
19 0 56 -7 61 -101 61 -42 0 -63 -5 -82 -20z"/>
<path d="M2183 2203 c-33 -4 -44 -18 -20 -25 8 -3 12 -30 12 -88 0 -58 -4 -85
-12 -87 -7 -3 -13 -10 -13 -16 0 -8 21 -12 60 -12 39 0 60 4 60 12 0 6 -5 13
-12 15 -7 3 -14 32 -16 75 -4 65 -2 72 19 87 29 20 34 20 53 0 22 -21 22 -136
1 -158 -26 -25 -17 -31 45 -31 39 0 60 4 60 12 0 6 -6 13 -12 15 -9 3 -14 32
-15 89 -2 73 -5 86 -24 102 -26 21 -64 22 -101 3 -24 -13 -28 -13 -28 0 0 8
-6 13 -12 12 -7 0 -28 -3 -45 -5z"/>
<path d="M1350 2000 c0 -5 6 -10 14 -10 18 0 26 -45 26 -150 0 -105 -8 -150
-26 -150 -8 0 -14 -4 -14 -10 0 -6 42 -10 108 -10 169 1 232 42 240 160 6 84
-31 143 -107 169 -42 14 -241 15 -241 1z m227 -42 c29 -30 44 -110 32 -176
-11 -60 -45 -92 -98 -92 -48 0 -51 8 -51 150 0 146 3 154 53 147 23 -3 50 -15
64 -29z"/>
<path d="M2960 2001 c0 -6 6 -11 14 -11 17 0 26 -52 26 -156 0 -99 -8 -144
-26 -144 -8 0 -14 -4 -14 -10 0 -6 32 -10 75 -10 43 0 75 4 75 10 0 6 -6 10
-14 10 -17 0 -26 31 -26 88 0 40 2 42 29 42 37 0 49 -16 60 -76 10 -55 38 -84
82 -84 36 0 44 15 21 38 -10 10 -22 38 -26 61 -4 27 -16 51 -33 67 -17 16 -21
24 -11 24 49 0 65 91 22 131 -23 22 -35 24 -140 28 -79 2 -114 0 -114 -8z
m180 -31 c24 -24 27 -82 4 -104 -8 -9 -29 -16 -45 -16 -28 0 -29 2 -29 48 0
92 25 117 70 72z"/>
<path d="M305 328 c-15 -40 -30 -82 -35 -93 -4 -11 -15 -42 -25 -70 -9 -27
-20 -59 -25 -70 -4 -11 -13 -33 -19 -48 -6 -15 -11 -30 -11 -32 0 -3 117 -5
260 -5 143 0 260 4 260 8 0 6 -340 351 -374 380 -2 2 -16 -30 -31 -70z"/>
<path d="M4067 212 c-103 -103 -187 -191 -187 -195 0 -4 117 -7 260 -7 220 0
260 2 260 14 0 8 -4 18 -10 21 -5 3 -10 16 -10 29 0 12 -4 26 -9 31 -5 6 -18
37 -29 70 -44 126 -68 191 -78 207 -8 15 -37 -10 -197 -170z"/>
</g>
</svg>
